<?xml version="1.0" standalone="no"?><!DOCTYPE svg PUBLIC "-//W3C//DTD SVG 1.1//EN" "http://www.w3.org/Graphics/SVG/1.1/DTD/svg11.dtd"><svg t="1619500502337" class="icon" viewBox="0 0 1024 1024" version="1.1" xmlns="http://www.w3.org/2000/svg" p-id="9968" width="32" height="32" xmlns:xlink="http://www.w3.org/1999/xlink"><defs><style type="text/css"></style></defs><path d="M832 1016.746667h-640a128 128 0 0 1-128-128v-298.666667a15.786667 15.786667 0 0 1 0-4.693333A158.72 158.72 0 0 1 177.066667 315.733333H384V224.853333a85.333333 85.333333 0 0 1 85.333333-85.333333h85.333334a85.333333 85.333333 0 0 1 85.333333 85.333333V315.733333h209.066667a159.146667 159.146667 0 0 1 158.72 158.72 157.013333 157.013333 0 0 1-47.786667 113.066667v301.226667a128 128 0 0 1-128 128z m-682.666667-384v256a42.666667 42.666667 0 0 0 42.666667 42.666666h640a42.666667 42.666667 0 0 0 42.666667-42.666666v-256a162.133333 162.133333 0 0 1-137.386667-42.666667 158.293333 158.293333 0 0 1-224 0 158.293333 158.293333 0 0 1-224 0 162.56 162.56 0 0 1-139.946667 40.533333z m587.946667-170.666667a42.666667 42.666667 0 0 1 42.666667 31.573333A73.386667 73.386667 0 1 0 849.066667 401.066667H177.066667a73.386667 73.386667 0 1 0 70.826666 92.16 42.666667 42.666667 0 0 1 42.666667-31.573334 42.666667 42.666667 0 0 1 42.666667 31.573334 73.386667 73.386667 0 0 0 141.653333 0 42.666667 42.666667 0 0 1 42.666667-31.573334 42.666667 42.666667 0 0 1 42.666666 31.573334 73.386667 73.386667 0 0 0 141.653334 0 42.666667 42.666667 0 0 1 35.413333-31.573334zM469.333333 315.733333h85.333334V224.853333h-85.333334zM525.226667 128a42.666667 42.666667 0 0 1-39.68-27.733333l-12.373334-31.573334A42.666667 42.666667 0 0 1 554.666667 36.266667l12.373333 31.573333a42.666667 42.666667 0 0 1-24.746667 55.04 39.253333 39.253333 0 0 1-17.066666 5.12z" p-id="9969" fill="#f13757"></path></svg>