<?xml version="1.0" standalone="no"?><!DOCTYPE svg PUBLIC "-//W3C//DTD SVG 1.1//EN" "http://www.w3.org/Graphics/SVG/1.1/DTD/svg11.dtd"><svg t="1619501438664" class="icon" viewBox="0 0 1024 1024" version="1.1" xmlns="http://www.w3.org/2000/svg" p-id="13390" xmlns:xlink="http://www.w3.org/1999/xlink" width="32" height="32"><defs><style type="text/css"></style></defs><path d="M318.042353 244.796235a21.684706 21.684706 0 0 0 21.684706-21.684706v-65.054117a21.684706 21.684706 0 0 0-43.369412 0v65.054117c0 11.926588 9.637647 21.684706 21.684706 21.684706z m408.455529 472.96753h40.899765c102.4 0 185.705412-83.305412 185.705412-185.705412a185.946353 185.946353 0 0 0-160.707765-184.018824l3.493647-19.696941c3.373176-18.672941-9.637647-36.020706-27.105882-36.020706H173.598118c-17.408 0-30.418824 17.347765-27.105883 36.020706l103.484236 585.487059c1.204706 6.324706 2.590118 12.348235 4.276705 18.191059H106.435765a32.527059 32.527059 0 1 0 0 65.054118h715.595294a32.527059 32.527059 0 1 0 0-65.054118h-134.806588c1.686588-5.842824 3.192471-11.866353 4.336941-18.191059l34.93647-196.065882z m161.551059-185.705412a120.771765 120.771765 0 0 1-120.651294 120.651294h-29.274353l24.214588-135.890823h0.542118l-0.060235-2.710589 18.130823-101.978353a120.832 120.832 0 0 1 107.098353 119.868236z m-163.418353-174.682353l-16.082823 90.232471a141.793882 141.793882 0 0 0-54.091294-10.24c-57.464471 0-103.183059 31.141647-108.001883 72.282353h-0.421647c0 17.046588-26.684235 36.141176-65.054117 36.141176-38.309647 0-65.054118-19.094588-65.054118-36.141176h-0.421647c-4.818824-41.140706-50.537412-72.282353-108.001883-72.282353-28.009412 0-53.187765 7.408941-72.282352 19.696941l-17.588706-99.689412h507.00047zM244.374588 508.687059c6.806588-14.456471 30.840471-28.009412 63.126588-28.009412 38.369882 0 65.054118 19.094588 65.054118 36.141177h0.421647c4.818824 41.080471 50.597647 72.282353 108.001883 72.282352 57.464471 0 103.183059-31.201882 108.001882-72.282352h0.421647c0-17.046588 26.744471-36.141176 65.054118-36.141177 18.793412 0 34.755765 4.638118 46.20047 11.324235L627.651765 901.903059c-3.373176 18.191059-8.914824 26.804706-11.264 29.153882H324.969412c-2.409412-2.409412-7.830588-10.842353-11.023059-28.551529L244.374588 508.687059z m226.785883-266.480941a21.684706 21.684706 0 0 0 21.684705-21.684706V68.668235a21.684706 21.684706 0 0 0-43.369411 0v151.792941c0 11.926588 9.758118 21.684706 21.684706 21.684706z m153.178353 2.590117a21.684706 21.684706 0 0 0 21.684705-21.684706v-65.054117a21.684706 21.684706 0 0 0-43.369411 0v65.054117c0 11.926588 9.758118 21.684706 21.684706 21.684706z" p-id="13391" fill="#f13757"></path></svg>